<svg width="48" height="48" viewBox="0 0 48 48" fill="none" xmlns="http://www.w3.org/2000/svg">
<path d="M47.9896 21.9784C42.3725 36.5451 20.0105 47.5446 19.8293 47.6336C8.56027 45.6471 0 35.8217 0 24C0 10.7452 10.7616 0 24.0368 0C25.7864 0 27.4925 0.186651 29.1359 0.5411C29.1359 0.5411 23.4245 0.222876 20.9179 5.38446C20.4389 6.37105 19.8408 7.7938 19.1377 9.46624C15.2895 18.6205 8.29692 35.2544 0.477442 28.7791C6.67941 39.3668 17.1521 20.2853 21.7487 8.59155C24.8007 0.825922 29.1359 0.5411 29.1359 0.5411C39.3214 2.73783 47.1043 11.3798 47.9896 21.9784Z" fill="#ECFA6D"/>
<path d="M47.9997 25.8967C42.9772 36.9735 23.5116 47.994 23.5116 47.994C23.6863 47.9977 23.8613 48 24.0368 48C36.6726 48 47.0312 38.2649 47.9997 25.8967Z" fill="#ECFA6D"/>
</svg>
